<?xml version="1.0" standalone="no"?>
<!DOCTYPE svg PUBLIC "-//W3C//DTD SVG 20010904//EN"
 "http://www.w3.org/TR/2001/REC-SVG-20010904/DTD/svg10.dtd">
<svg version="1.0" xmlns="http://www.w3.org/2000/svg"
 width="1248.000000pt" height="1248.000000pt" viewBox="0 0 1248.000000 1248.000000"
 preserveAspectRatio="xMidYMid meet">
<metadata>
Created by potrace 1.11, written by Peter Selinger 2001-2013
</metadata>
<g transform="translate(0.000000,1248.000000) scale(0.100000,-0.100000)"
fill="#000000" stroke="none">
<path d="M6439 12426 c-76 -52 -103 -181 -97 -479 l3 -197 -40 -4 c-22 -3 -96
-12 -165 -22 -69 -9 -192 -20 -275 -25 -82 -4 -199 -17 -260 -28 -60 -12 -171
-28 -245 -36 -152 -16 -208 -31 -330 -85 -143 -64 -323 -126 -595 -205 -143
-41 -323 -98 -400 -124 -77 -27 -195 -63 -263 -80 -155 -37 -229 -72 -314
-147 -52 -46 -95 -72 -200 -119 -246 -110 -656 -327 -733 -387 -296 -231 -325
-251 -440 -298 -174 -71 -248 -141 -329 -312 -58 -125 -73 -141 -229 -256
-120 -89 -157 -133 -224 -267 -68 -135 -100 -183 -173 -260 -31 -33 -100 -127
-154 -210 -54 -82 -113 -168 -132 -191 -75 -93 -145 -239 -185 -385 -14 -53
-36 -102 -63 -142 -59 -86 -150 -278 -177 -367 -12 -41 -46 -131 -75 -200 -67
-158 -99 -269 -114 -395 -17 -153 -40 -295 -54 -345 -14 -48 -33 -118 -43
-160 -3 -14 -17 -42 -31 -62 -32 -48 -46 -164 -27 -218 7 -20 16 -80 20 -133
4 -58 12 -97 18 -97 6 0 24 -12 39 -27 39 -37 92 -37 122 -1 60 75 76 103 76
133 0 29 5 35 48 53 108 47 387 105 579 122 65 6 166 15 225 20 71 7 144 7
220 0 62 -5 151 -12 198 -15 47 -3 108 -8 137 -11 l51 -5 -28 -47 c-16 -26
-47 -101 -70 -167 -24 -66 -55 -145 -70 -175 -36 -72 -56 -136 -75 -240 -8
-47 -31 -137 -50 -200 -19 -63 -44 -171 -55 -240 -12 -69 -28 -155 -35 -192
-8 -37 -24 -138 -35 -225 -11 -87 -27 -193 -35 -236 -8 -42 -19 -144 -25 -225
-5 -81 -14 -174 -19 -207 -6 -33 -15 -118 -22 -190 -12 -144 -76 -440 -108
-502 -10 -21 -53 -78 -94 -126 -48 -55 -91 -120 -121 -179 -25 -51 -64 -125
-86 -164 -67 -118 -97 -268 -127 -632 -9 -110 100 -499 170 -608 14 -22 71
-87 128 -145 76 -77 114 -125 143 -180 95 -181 145 -235 301 -325 28 -16 101
-77 162 -136 106 -102 120 -112 240 -168 274 -130 348 -171 479 -271 148 -112
249 -154 492 -209 185 -41 202 -43 637 -71 203 -13 725 -17 777 -6 20 4 61 24
90 43 l53 36 85 -16 c47 -9 168 -23 270 -31 102 -8 212 -22 245 -30 61 -16
195 -26 585 -45 118 -5 273 -17 344 -26 108 -14 199 -15 555 -11 234 3 433 8
441 11 39 14 274 38 450 45 156 7 206 13 250 29 30 11 86 23 123 26 145 12
453 77 643 136 106 33 224 64 263 70 43 6 105 25 158 49 90 40 139 55 301 90
77 17 122 36 250 103 150 79 203 117 367 258 93 80 171 123 297 164 127 41
275 113 347 169 29 23 88 79 130 125 41 46 105 104 141 130 95 67 200 178 236
247 18 33 43 92 57 132 29 80 97 217 156 311 29 46 45 90 61 160 12 53 33 129
46 168 24 72 69 269 98 429 9 50 27 119 39 155 28 86 28 278 -2 469 -12 79
-21 181 -21 250 0 114 -20 294 -41 376 -6 22 -22 65 -37 95 -18 40 -25 69 -24
105 4 101 -25 221 -82 339 -78 160 -139 300 -170 388 -15 42 -43 102 -62 134
-22 36 -34 69 -34 92 0 46 -34 117 -69 142 -16 11 -36 42 -48 73 l-21 54 82
164 c90 180 102 220 115 388 10 119 -6 333 -29 414 -6 22 -9 42 -6 45 4 3 86
-5 184 -17 97 -13 231 -29 297 -37 255 -29 394 -67 479 -130 89 -67 132 -90
231 -122 50 -16 122 -43 162 -61 83 -36 134 -39 182 -10 l33 20 -4 177 c-5
166 -7 183 -37 272 -19 58 -47 185 -71 327 -32 190 -50 266 -99 419 -69 213
-99 274 -177 364 -82 94 -100 125 -130 230 -73 257 -112 320 -269 427 -71 50
-85 69 -144 202 -13 30 -65 115 -114 190 -50 74 -110 178 -135 231 -72 154
-133 230 -252 310 -71 47 -93 78 -160 215 -88 182 -137 234 -290 306 -216 102
-211 99 -257 166 -128 189 -224 276 -373 338 -111 47 -183 91 -302 186 -53 43
-134 103 -180 134 -46 31 -105 74 -133 95 -70 56 -192 105 -358 146 -78 19
-185 48 -237 64 -52 16 -174 47 -270 69 -136 30 -199 50 -285 89 -87 40 -139
56 -245 77 -74 14 -187 37 -251 50 -63 14 -147 29 -185 34 -39 6 -171 31 -295
56 -123 25 -284 52 -357 59 -73 8 -135 16 -138 19 -4 3 -2 77 2 164 5 87 6
178 2 203 -3 25 -11 77 -17 115 -19 133 -38 164 -116 201 -66 31 -120 31 -166
0z m4179 -7069 c87 -77 114 -121 143 -239 22 -87 41 -130 89 -202 25 -36 36
-71 56 -178 14 -73 40 -180 58 -238 41 -128 67 -255 76 -375 4 -49 16 -128 26
-175 15 -69 19 -126 19 -295 0 -198 -2 -216 -27 -305 -15 -52 -36 -151 -48
-220 -13 -74 -33 -151 -50 -190 -35 -80 -42 -108 -75 -290 -20 -110 -37 -169
-70 -245 -23 -55 -62 -145 -84 -200 -62 -148 -134 -235 -252 -301 -118 -66
-176 -117 -235 -206 -58 -89 -118 -154 -164 -177 -19 -10 -80 -33 -135 -51
-115 -37 -147 -52 -268 -128 -49 -30 -141 -78 -205 -107 -116 -52 -180 -86
-339 -179 -72 -42 -97 -51 -226 -76 -95 -19 -184 -44 -260 -74 -63 -25 -146
-52 -183 -60 -93 -20 -224 -61 -308 -98 -38 -17 -133 -43 -210 -59 -78 -16
-179 -40 -226 -54 -114 -32 -230 -52 -380 -65 -69 -6 -177 -15 -240 -21 -252
-23 -586 -26 -1025 -8 -11 1 -88 -5 -171 -12 -158 -13 -191 -11 -379 25 -44 9
-152 27 -240 42 -88 14 -218 41 -290 59 -71 19 -168 39 -215 45 -114 14 -193
30 -206 41 -6 5 -14 30 -18 55 -3 26 -19 85 -35 133 -16 47 -39 133 -51 191
-12 58 -52 188 -90 290 -123 336 -200 587 -246 801 -19 87 -49 230 -68 317
-19 88 -48 201 -64 253 -17 52 -42 162 -56 245 -14 82 -46 250 -70 374 -25
124 -54 281 -65 348 -12 68 -30 160 -41 203 -12 44 -25 117 -31 162 -14 115
-35 191 -75 272 -30 63 -54 149 -54 194 0 10 26 28 68 48 37 17 118 65 181
107 63 42 119 76 124 76 5 0 73 -16 151 -35 200 -49 656 -141 821 -165 77 -12
192 -29 255 -40 180 -30 308 -39 700 -51 775 -23 1410 15 2495 150 372 47 584
85 925 166 169 40 648 248 840 365 150 91 181 116 247 207 l46 62 39 -22 c22
-12 74 -53 116 -90z"/>
<path d="M8867 4069 c-56 -13 -90 -34 -127 -75 -43 -49 -60 -92 -67 -168 -11
-125 54 -247 152 -281 32 -11 40 -18 38 -37 -8 -93 86 -133 124 -52 l16 33 26
-25 c30 -30 92 -64 118 -64 10 0 29 7 41 16 18 12 22 24 20 52 -2 30 -10 41
-41 62 l-39 25 24 15 c73 48 120 136 126 241 6 95 -8 139 -61 196 -28 30 -54
47 -90 58 -55 16 -198 19 -260 4z m215 -130 c70 -19 89 -108 43 -199 -26 -51
-53 -69 -40 -27 30 100 24 147 -25 194 -46 43 -41 50 22 32z"/>
<path d="M7119 3841 c-44 -27 -96 -95 -119 -156 -15 -36 -15 -157 -1 -204 22
-72 94 -141 148 -141 31 0 33 -9 10 -56 -26 -53 -16 -93 25 -108 45 -16 75 6
107 78 l29 63 68 -32 c78 -37 98 -42 136 -32 58 15 53 102 -7 121 -17 6 -31
11 -33 12 -1 1 12 25 30 54 28 46 33 64 36 130 4 67 1 83 -22 128 -36 72 -79
117 -138 146 -44 22 -66 26 -138 26 -77 0 -91 -3 -131 -29z m300 -259 c1 -39
-22 -87 -48 -102 -30 -15 -30 -13 -10 26 10 20 24 61 30 92 10 41 15 50 20 36
4 -11 8 -34 8 -52z"/>
<path d="M8840 2270 c-11 -11 -20 -26 -20 -34 0 -20 -85 -132 -114 -151 -30
-20 -202 -70 -267 -78 -25 -3 -87 0 -139 8 -75 11 -102 20 -136 45 -48 34 -93
39 -117 12 -86 -95 163 -218 398 -197 95 8 288 66 339 102 69 49 176 203 176
254 0 55 -79 80 -120 39z"/>
<path d="M336 5213 c-6 -14 -5 -15 5 -6 7 7 10 15 7 18 -3 3 -9 -2 -12 -12z"/>
</g>
</svg>
